<?xml version="1.0" encoding="UTF-8"?>
<svg id="Layer_1" data-name="Layer 1" xmlns="http://www.w3.org/2000/svg" viewBox="0 0 270.72 98.31">
  <defs>
    <style>
      .cls-1 {
        fill: #ffe32d;
      }

      .cls-1, .cls-2, .cls-3, .cls-4, .cls-5 {
        stroke-width: 0px;
      }

      .cls-2 {
        fill: #a3c8d8;
      }

      .cls-3 {
        fill: #2c4d97;
      }

      .cls-4 {
        fill: #278f48;
      }

      .cls-5 {
        fill: #bed63a;
      }
    </style>
  </defs>
  <path class="cls-2" d="M12.58,49.15c0-13.82,8.45-24.96,21.69-24.96,5.57,0,11.52,2.21,14.97,6.82v-5.86h12.58v48h-12.58v-5.76c-3.36,4.61-9.41,6.72-14.97,6.72-13.25,0-21.69-11.14-21.69-24.96ZM48.96,49.15c0-7.49-4.8-13.06-11.42-13.06s-11.9,5.57-11.9,13.06,4.99,13.05,11.9,13.05,11.42-5.38,11.42-13.05Z"/>
  <path class="cls-3" d="M101.47,58.27l6.81,9.6c-.14.12-.29.24-.44.36-3.99,3.25-9.28,5.31-15.01,5.77-.38.03-.75.05-1.13.07-.15.01-.29.02-.44.02-.31.02-.62.02-.93.02-13.41,0-24.2-9.7-25.5-22.39-.08-.84-.13-1.7-.13-2.57s.05-1.73.13-2.57c1.3-12.69,12.09-22.39,25.5-22.39.16,0,.32,0,.48.01h.06c.13,0,.26,0,.39,0,.15,0,.29.01.44.02.38.02.75.04,1.13.07,5.73.46,11.02,2.52,15.01,5.77.15.12.3.24.44.36l-6.81,9.6c-.18-.18-.37-.35-.57-.51-.25-.21-.51-.41-.78-.6-2.45-1.76-5.74-2.83-9.11-2.83-.13,0-.25,0-.38.01-.13,0-.27,0-.4.01-1.84.04-3.54.42-5.06,1.09-.22.1-.43.2-.64.3-.24.12-.48.25-.71.38-.37.22-.72.45-1.06.7-.31.23-.61.47-.9.73-.18.16-.35.32-.51.5-1.01,1.01-1.83,2.21-2.42,3.56-.1.23-.19.46-.28.69-.08.19-.14.38-.2.57-.19.58-.34,1.17-.45,1.78,0,.01,0,.02-.01.03-.06.38-.12.77-.15,1.17-.01.07-.02.15-.03.23-.03.43-.05.87-.05,1.31s.02.88.05,1.31c0,.07.02.15.03.23.03.4.09.79.15,1.17.01.01.01.02.01.03.11.61.26,1.2.45,1.78.07.19.14.38.2.57.09.23.19.47.28.69.59,1.35,1.41,2.55,2.42,3.56.16.17.33.34.51.5.28.25.59.5.9.73.34.25.69.48,1.06.7.23.13.47.26.71.38.21.11.42.21.64.3,1.52.67,3.22,1.05,5.06,1.09.13.01.26.01.39.01h.01c.13,0,.25,0,.38,0,3.37,0,6.66-1.07,9.11-2.83.27-.19.53-.39.78-.6.2-.16.39-.33.57-.51Z"/>
  <path class="cls-4" d="M105.79,49.15c0-13.82,10.75-24.96,24.86-24.96,13.06,0,23.33,11.14,23.33,24.77,0,2.3-.29,4.61-.29,4.61h-34.85c1.54,6.62,7.01,9.79,13.34,9.79,4.61,0,9.41-1.34,12.96-3.74l4.8,9.22c-5.38,3.55-11.62,5.28-17.85,5.28-14.02,0-26.3-9.12-26.3-24.96ZM141.89,45.02c-.96-6.05-5.76-10.08-11.61-10.08s-10.37,4.03-11.62,10.08h23.23Z"/>
  <path class="cls-5" d="M193.34,12.58v18.43c-3.45-4.61-9.41-6.82-14.97-6.82-13.25,0-21.7,11.14-21.7,24.96s8.45,24.96,21.7,24.96c5.56,0,11.61-2.11,14.97-6.72v5.76h12.58V12.58h-12.58ZM181.63,62.21c-6.91,0-11.9-5.47-11.9-13.06s4.99-13.05,11.9-13.05,11.42,5.56,11.42,13.05-4.8,13.06-11.42,13.06Z"/>
  <g>
    <path class="cls-1" d="M258.9,26.99c.02-.07.03-.15.03-.22,0-.3-.18-.58-.51-.84-.08.07-.18.13-.28.2-1.18.73-3.55,1.23-6.29,1.23s-5.1-.5-6.28-1.22c-.11-.07-.21-.13-.29-.2-.33.26-.51.54-.51.84,0,.08.01.15.03.22.36,1.15.77,2.28.77,3.48v.54c-3.46-4.61-9.41-6.82-14.98-6.82-13.25,0-21.69,11.14-21.69,24.96s8.45,24.96,21.69,24.96c5.57,0,11.62-2.11,14.98-6.72v.44c0,1.2-.41,2.33-.77,3.48-.02.07-.03.15-.03.22,0,.3.18.58.51.84.09.07.19.14.29.21.34.21.78.4,1.29.56.08.03.17.05.26.08,1.25.36,2.91.58,4.73.58s3.47-.22,4.73-.58c.09-.03.18-.05.26-.08.52-.17.96-.36,1.31-.57.1-.06.2-.13.28-.2.33-.26.51-.54.51-.84,0-.08-.01-.15-.03-.22-.35-1.14-.76-2.26-.76-3.45v-13.73c0-1.07.34-2.08.63-3.1.02-.07.03-.13.03-.2,0-.3-.18-.58-.51-.84-.04.04-.09.07-.14.1-1.12.78-3.58,1.32-6.43,1.32s-5.36-.55-6.47-1.34c-.04-.03-.07-.05-.11-.08-.33.26-.51.55-.51.84,0,.07.02.18.03.31.06.64.11,1,.12,1.16.03.31.02.77-.13,1.38-1.5,5.17-5.57,8.52-10.79,8.52-6.91,0-11.9-5.47-11.9-13.05s4.99-13.06,11.9-13.06c5.22,0,9.29,3.46,10.79,8.59.23.97.22,1.45.15,1.71-.02.07-.12.42-.16.9,0,.07-.01.13-.01.17,0,.3.18.58.51.84.04.03.07.06.11.08.41.29,1,.55,1.74.76,1.25.36,2.91.58,4.73.58s3.47-.22,4.73-.58c.72-.21,1.3-.46,1.71-.74.05-.03.1-.07.14-.1.33-.26.51-.54.51-.84,0-.07,0-.13-.03-.2-.29-1.03-.63-2.04-.63-3.1v-13.73c0-1.19.41-2.31.76-3.45Z"/>
    <path class="cls-1" d="M245.28,24.23c.41.33,1.05.61,1.85.84.09.03.18.05.27.08,1.22.32,2.77.51,4.45.51s3.24-.19,4.45-.51c.09-.02.18-.05.27-.08.8-.23,1.44-.52,1.85-.84.33-.26.51-.54.51-.84,0-1.25-3.17-2.27-7.09-2.27s-7.09,1.02-7.09,2.27c0,.3.18.58.51.84Z"/>
    <path class="cls-1" d="M258.42,74.07c-1.05.83-3.59,1.42-6.57,1.42s-5.53-.59-6.57-1.42c-.33.26-.51.54-.51.84,0,1.25,3.17,2.27,7.09,2.27s7.09-1.02,7.09-2.27c0-.3-.18-.58-.51-.84Z"/>
  </g>
</svg>